<svg xmlns="http://www.w3.org/2000/svg" width="256" height="256" viewBox="0 0 256 256" fill="none">
  <defs>
    <linearGradient id="bg" x1="16" y1="16" x2="240" y2="240" gradientUnits="userSpaceOnUse">
      <stop stop-color="#FFF8EC"/>
      <stop offset="1" stop-color="#EED6BB"/>
    </linearGradient>
    <linearGradient id="coffee" x1="128" y1="105" x2="128" y2="196" gradientUnits="userSpaceOnUse">
      <stop stop-color="#B56D3B"/>
      <stop offset="1" stop-color="#6F4328"/>
    </linearGradient>
  </defs>
  <rect x="12" y="12" width="232" height="232" rx="46" fill="url(#bg)"/>
  <rect x="104" y="32" width="12" height="78" rx="6" fill="#4B3529"/>
  <rect x="80" y="96" width="96" height="14" rx="5" fill="#34241B"/>
  <rect x="66" y="105" width="124" height="98" rx="16" fill="#F4ECE4" stroke="#4A3A2F" stroke-width="8"/>
  <rect x="70" y="138" width="116" height="61" rx="12" fill="url(#coffee)"/>
  <rect x="88" y="122" width="80" height="12" rx="6" fill="#D7CABE" stroke="#52463C" stroke-width="3"/>
  <path d="M193 132C207 132 216 143 216 157C216 171 207 182 193 182" stroke="#34261D" stroke-width="9" stroke-linecap="round"/>
  <circle cx="128" cy="138" r="3" fill="#F4D6B0"/>
  <circle cx="144" cy="150" r="3" fill="#F4D6B0"/>
  <circle cx="112" cy="164" r="3" fill="#F4D6B0"/>
</svg>
