<svg xmlns="http://www.w3.org/2000/svg" viewBox="0 0 24 24" role="img" aria-label="GitHub">
  <path fill="#6b4229" d="M12 .5A12 12 0 0 0 8.2 23.9c.6.1.8-.2.8-.6v-2.1c-3.4.7-4.1-1.4-4.1-1.4-.5-1.3-1.3-1.7-1.3-1.7-1.1-.7.1-.7.1-.7 1.2.1 1.9 1.2 1.9 1.2 1 1.8 2.7 1.2 3.4.9.1-.8.4-1.2.7-1.5-2.7-.3-5.5-1.3-5.5-6a4.7 4.7 0 0 1 1.2-3.2 4.4 4.4 0 0 1 .1-3.1s1-.3 3.3 1.2a11.2 11.2 0 0 1 6 0c2.3-1.5 3.3-1.2 3.3-1.2a4.4 4.4 0 0 1 .1 3.1 4.7 4.7 0 0 1 1.2 3.2c0 4.7-2.8 5.7-5.5 6 .4.4.8 1.1.8 2.2v3.2c0 .4.2.7.8.6A12 12 0 0 0 12 .5"/>
</svg>
